<?xml version="1.0" encoding="UTF-8"?>
<svg width="30px" height="26px" viewBox="0 0 30 26" version="1.1" xmlns="http://www.w3.org/2000/svg" xmlns:xlink="http://www.w3.org/1999/xlink">
    <!-- Generator: Sketch 44.1 (41455) - http://www.bohemiancoding.com/sketch -->
    <title>alert-triangle</title>
    <desc>Created with Sketch.</desc>
    <defs></defs>
    <g id="Patient-Roster" stroke="none" stroke-width="1" fill="none" fill-rule="evenodd">
        <g id="Commons_PatientRoster_v1---Loading-error" transform="translate(-625.000000, -576.000000)" fill="#FF715B">
            <g id="Group-6" transform="translate(20.000000, 212.000000)">
                <g id="Group-4">
                    <g id="Group-5" transform="translate(415.000000, 364.000000)">
                        <g id="alert-triangle" transform="translate(190.000000, 0.000000)">
                            <path d="M11.5815108,1.85265718 C12.2946185,0.700130542 13.5631258,0 14.9309031,0 C16.2986804,0 17.5671877,0.700130542 18.2802954,1.85265718 L29.3387168,19.9509725 C30.0339832,21.1313292 30.0381344,22.5847133 29.3496215,23.7688683 C28.6611086,24.9530233 27.3833455,25.6900906 25.9787292,25.7051481 L3.86874154,25.7050708 C2.4784607,25.6900906 1.20069761,24.9530233 0.512184728,23.7688683 C-0.176328159,22.5847133 -0.172177018,21.1313292 0.533684721,19.9333129 L11.5815108,1.85265718 Z M13.8172437,3.17039039 L2.78219509,21.2298155 C2.55043963,21.6232677 2.54905592,22.1077291 2.77856022,22.5024474 C3.00806451,22.8971658 3.43398554,23.1428548 3.88307701,23.147771 L25.9643937,23.1478483 C26.4278207,23.1428548 26.8537417,22.8971658 27.083246,22.5024474 C27.3127503,22.1077291 27.3113666,21.6232677 27.0902065,21.247475 L16.0461205,3.1729019 C15.8096646,2.7907539 15.3868289,2.55737705 14.9309031,2.55737705 C14.475977,2.55737705 14.0539959,2.78973163 13.8172437,3.17039039 Z" id="Shape" fill-rule="nonzero"></path>
                            <g id="Group-3" transform="translate(13.714286, 7.800000)">
                                <path d="M0,1.3 L0,6.5 C0,7.21797017 0.575633893,7.8 1.28571429,7.8 C1.99579468,7.8 2.57142857,7.21797017 2.57142857,6.5 L2.57142857,1.3 C2.57142857,0.582029825 1.99579468,0 1.28571429,0 C0.575633893,0 0,0.582029825 0,1.3 Z" id="Shape" fill-rule="nonzero"></path>
                                <ellipse id="Oval-4" cx="1.28571429" cy="10.8333333" rx="1.28571429" ry="1.3"></ellipse>
                            </g>
                        </g>
                    </g>
                </g>
            </g>
        </g>
    </g>
</svg>