<?xml version="1.0" encoding="UTF-8"?>
<svg width="24px" height="21px" viewBox="0 0 24 21" version="1.1" xmlns="http://www.w3.org/2000/svg" xmlns:xlink="http://www.w3.org/1999/xlink">
    <!-- Generator: Sketch 44.1 (41455) - http://www.bohemiancoding.com/sketch -->
    <title>alert-triangle</title>
    <desc>Created with Sketch.</desc>
    <defs></defs>
    <g id="Login" stroke="none" stroke-width="1" fill="none" fill-rule="evenodd">
        <g id="Login---Error" transform="translate(-473.000000, -570.000000)" fill="#FFFFFF">
            <g id="Rectangle-3" transform="translate(455.000000, 553.000000)">
                <g id="alert-triangle" transform="translate(18.000000, 17.000000)">
                    <path d="M9.26520865,1.49637696 C9.83569482,0.565490053 10.8505006,0 11.9447225,0 C13.0389443,0 14.0537501,0.565490053 14.6242363,1.49637696 L23.4709735,16.114247 C24.0271866,17.067612 24.0305075,18.2414992 23.4796972,19.1979321 C22.9288869,20.154365 21.9066764,20.7496886 20.7829833,20.7618504 L3.09499323,20.761788 C1.98276856,20.7496886 0.960558092,20.154365 0.409747782,19.1979321 C-0.141062527,18.2414992 -0.137741614,17.067612 0.426947777,16.0999835 L9.26520865,1.49637696 Z M11.053795,2.56069993 L2.22575607,17.1471586 C2.04035171,17.464947 2.03924474,17.8562427 2.22284817,18.1750537 C2.40645161,18.4938646 2.74718843,18.6923058 3.10646161,18.6962766 L20.771515,18.696339 C21.1422565,18.6923058 21.4829933,18.4938646 21.6665968,18.1750537 C21.8502002,17.8562427 21.8490932,17.464947 21.6721652,17.1614221 L12.8368964,2.56272846 C12.6477317,2.25407045 12.3094631,2.06557377 11.9447225,2.06557377 C11.5807816,2.06557377 11.2431967,2.25324478 11.053795,2.56069993 Z" id="Shape" fill-rule="nonzero"></path>
                    <g id="Group-3" transform="translate(10.971429, 6.300000)">
                        <path d="M0,1.05 L0,5.25 C0,5.82989899 0.460507114,6.3 1.02857143,6.3 C1.59663574,6.3 2.05714286,5.82989899 2.05714286,5.25 L2.05714286,1.05 C2.05714286,0.470101013 1.59663574,0 1.02857143,0 C0.460507114,0 0,0.470101013 0,1.05 Z" id="Shape" fill-rule="nonzero"></path>
                        <ellipse id="Oval-4" cx="1.02857143" cy="8.75" rx="1.02857143" ry="1.05"></ellipse>
                    </g>
                </g>
            </g>
        </g>
    </g>
</svg>