<?xml version="1.0" encoding="UTF-8"?>
<svg width="10px" height="10px" viewBox="0 0 10 10" version="1.1" xmlns="http://www.w3.org/2000/svg" xmlns:xlink="http://www.w3.org/1999/xlink">
    <!-- Generator: Sketch 44.1 (41455) - http://www.bohemiancoding.com/sketch -->
    <title>ic_check_circle_black_36px</title>
    <desc>Created with Sketch.</desc>
    <defs></defs>
    <g id="Patient-Profile" stroke="none" stroke-width="1" fill="none" fill-rule="evenodd">
        <g id="Commons_PatientProfile_V1-Null-state_saved-note" transform="translate(-289.000000, -644.000000)">
            <g id="Group-6" transform="translate(0.000000, 70.000000)">
                <g id="Group-3">
                    <g id="Group-36" transform="translate(40.000000, 428.000000)">
                        <g id="Group-16" transform="translate(192.000000, 145.000000)">
                            <g id="ic_check_circle_black_36px" transform="translate(56.000000, 0.000000)">
                                <polygon id="Shape" points="0 0 12 0 12 12 0 12"></polygon>
                                <path d="M6,1 C3.24,1 1,3.24 1,6 C1,8.76 3.24,11 6,11 C8.76,11 11,8.76 11,6 C11,3.24 8.76,1 6,1 Z M5,8.5 L2.5,6 L3.205,5.295 L5,7.085 L8.795,3.29 L9.5,4 L5,8.5 Z" id="Shape" fill="#2962FF" fill-rule="nonzero"></path>
                            </g>
                        </g>
                    </g>
                </g>
            </g>
        </g>
    </g>
</svg>