<?xml version="1.0" encoding="UTF-8"?>
<svg width="14px" height="16px" viewBox="0 0 14 16" version="1.1" xmlns="http://www.w3.org/2000/svg" xmlns:xlink="http://www.w3.org/1999/xlink">
    <!-- Generator: Sketch 45.2 (43514) - http://www.bohemiancoding.com/sketch -->
    <title>ic_today_black_24px</title>
    <desc>Created with Sketch.</desc>
    <defs></defs>
    <g id="Symbols" stroke="none" stroke-width="1" fill="none" fill-rule="evenodd">
        <g id="Task_Detail_View-Copy" transform="translate(-22.000000, -52.000000)">
            <g id="Group-27-Copy-2">
                <g id="Group-4" transform="translate(20.000000, 52.000000)">
                    <g id="Group-13">
                        <g id="ic_today_black_24px">
                            <polygon id="Shape" points="0 0 18 0 18 18 0 18"></polygon>
                            <path d="M14.25,2.25 L13.5,2.25 L13.5,0.75 L12,0.75 L12,2.25 L6,2.25 L6,0.75 L4.5,0.75 L4.5,2.25 L3.75,2.25 C2.9175,2.25 2.2575,2.925 2.2575,3.75 L2.25,14.25 C2.25,15.075 2.9175,15.75 3.75,15.75 L14.25,15.75 C15.075,15.75 15.75,15.075 15.75,14.25 L15.75,3.75 C15.75,2.925 15.075,2.25 14.25,2.25 Z M14.25,14.25 L3.75,14.25 L3.75,6 L14.25,6 L14.25,14.25 Z M5.25,7.5 L9,7.5 L9,11.25 L5.25,11.25 L5.25,7.5 Z" id="Shape" fill="#85d578" fill-rule="nonzero"></path>
                        </g>
                    </g>
                </g>
            </g>
        </g>
    </g>
</svg>