<?xml version="1.0" encoding="UTF-8"?>
<svg width="28px" height="31px" viewBox="0 0 28 31" version="1.1" xmlns="http://www.w3.org/2000/svg" xmlns:xlink="http://www.w3.org/1999/xlink">
    <!-- Generator: Sketch 44.1 (41455) - http://www.bohemiancoding.com/sketch -->
    <title>ic_event_note_black_36px</title>
    <desc>Created with Sketch.</desc>
    <defs></defs>
    <g id="Patient-Profile" stroke="none" stroke-width="1" fill="none" fill-rule="evenodd">
        <g id="Commons_PatientProfile_V1-Null-state_saved-note" transform="translate(-784.000000, -315.000000)">
            <g id="Group-5" transform="translate(339.000000, 70.000000)">
                <g transform="translate(323.000000, 244.000000)" id="ic_event_note_black_36px">
                    <g transform="translate(118.000000, 0.000000)">
                        <polygon id="Shape" points="0 0 36 0 36 36 0 36"></polygon>
                        <path d="M25.5,15 L10.5,15 L10.5,18 L25.5,18 L25.5,15 Z M28.5,4.5 L27,4.5 L27,1.5 L24,1.5 L24,4.5 L12,4.5 L12,1.5 L9,1.5 L9,4.5 L7.5,4.5 C5.835,4.5 4.515,5.85 4.515,7.5 L4.5,28.5 C4.5,30.15 5.835,31.5 7.5,31.5 L28.5,31.5 C30.15,31.5 31.5,30.15 31.5,28.5 L31.5,7.5 C31.5,5.85 30.15,4.5 28.5,4.5 Z M28.5,28.5 L7.5,28.5 L7.5,12 L28.5,12 L28.5,28.5 Z M21,21 L10.5,21 L10.5,24 L21,24 L21,21 Z" id="Shape" fill="#CCCCCC" fill-rule="nonzero"></path>
                    </g>
                </g>
            </g>
        </g>
    </g>
</svg>