<?xml version="1.0" encoding="UTF-8"?>
<svg width="10px" height="8px" viewBox="0 0 10 8" version="1.1" xmlns="http://www.w3.org/2000/svg" xmlns:xlink="http://www.w3.org/1999/xlink">
    <!-- Generator: Sketch 44.1 (41455) - http://www.bohemiancoding.com/sketch -->
    <title>ic_email_black_36px</title>
    <desc>Created with Sketch.</desc>
    <defs></defs>
    <g id="Patient-Profile" stroke="none" stroke-width="1" fill="none" fill-rule="evenodd">
        <g id="Commons_PatientProfile_V1-expandedteam-useroptions" transform="translate(-1079.000000, -490.000000)">
            <g id="Group-4" transform="translate(1035.000000, 70.000000)">
                <g id="Group-22">
                    <g id="Group-17" transform="translate(0.000000, 239.000000)">
                        <g id="Group-17-Copy-3">
                            <g id="Group-19">
                                <g id="Group-18">
                                    <g id="Group-6" transform="translate(0.000000, 55.000000)">
                                        <g id="Group-39" transform="translate(43.000000, 20.000000)">
                                            <g id="ic_email_black_36px" transform="translate(0.000000, 104.000000)">
                                                <path d="M10,2 L2,2 C1.45,2 1.005,2.45 1.005,3 L1,9 C1,9.55 1.45,10 2,10 L10,10 C10.55,10 11,9.55 11,9 L11,3 C11,2.45 10.55,2 10,2 Z M10,4 L6,6.5 L2,4 L2,3 L6,5.5 L10,3 L10,4 Z" id="Shape" fill="#666666" fill-rule="nonzero"></path>
                                                <polygon id="Shape" points="0 0 12 0 12 12 0 12"></polygon>
                                            </g>
                                        </g>
                                    </g>
                                </g>
                            </g>
                        </g>
                    </g>
                </g>
            </g>
        </g>
    </g>
</svg>