<?xml version="1.0" encoding="UTF-8"?>
<svg width="18px" height="18px" viewBox="0 0 18 18" version="1.1" xmlns="http://www.w3.org/2000/svg" xmlns:xlink="http://www.w3.org/1999/xlink">
    <!-- Generator: Sketch 45.1 (43504) - http://www.bohemiancoding.com/sketch -->
    <title>ic_local_hospital_black_24px</title>
    <desc>Created with Sketch.</desc>
    <defs></defs>
    <g id="Symbols" stroke="none" stroke-width="1" fill="none" fill-rule="evenodd">
        <g id="iPad_Sidebar_collapse-meds_selected" transform="translate(-31.000000, -243.000000)">
            <g id="Group-3">
                <g id="Group-6">
                    <g id="Group-31-Copy-2" transform="translate(0.000000, 212.000000)">
                        <g id="ic_local_hospital_black_24px" transform="translate(28.000000, 28.000000)">
                            <polygon id="Shape" points="0 0 24 0 24 24 0 24"></polygon>
                            <path d="M19,3 L5,3 C3.9,3 3.01,3.9 3.01,5 L3,19 C3,20.1 3.9,21 5,21 L19,21 C20.1,21 21,20.1 21,19 L21,5 C21,3.9 20.1,3 19,3 Z M18,14 L14,14 L14,18 L10,18 L10,14 L6,14 L6,10 L10,10 L10,6 L14,6 L14,10 L18,10 L18,14 Z" id="Shape" fill="#2962FF" fill-rule="nonzero"></path>
                        </g>
                    </g>
                </g>
            </g>
        </g>
    </g>
</svg>