<?xml version="1.0" encoding="UTF-8"?>
<svg width="14px" height="14px" viewBox="0 0 14 14" version="1.1" xmlns="http://www.w3.org/2000/svg" xmlns:xlink="http://www.w3.org/1999/xlink">
    <!-- Generator: Sketch 45.1 (43504) - http://www.bohemiancoding.com/sketch -->
    <title>ic_power_settings_new_black_24px copy</title>
    <desc>Created with Sketch.</desc>
    <defs></defs>
    <g id="Patient-Roster" stroke="none" stroke-width="1" fill="none" fill-rule="evenodd">
        <g id="Commons_PatientRoster_v1---User-settings" transform="translate(-1087.000000, -167.000000)">
            <g id="Group-11" transform="translate(1065.000000, 65.000000)">
                <g id="Group-9" transform="translate(20.000000, 20.000000)">
                    <g id="Group-3" transform="translate(0.000000, 80.000000)">
                        <g id="ic_power_settings_new_black_24px-copy">
                            <polygon id="Shape" points="0 0 18 0 18 18 0 18"></polygon>
                            <path d="M9.75,2.25 L8.25,2.25 L8.25,9.75 L9.75,9.75 L9.75,2.25 Z M13.3725,3.8775 L12.3075,4.9425 C13.4925,5.895 14.25,7.3575 14.25,9 C14.25,11.9025 11.9025,14.25 9,14.25 C6.0975,14.25 3.75,11.9025 3.75,9 C3.75,7.3575 4.5075,5.895 5.685,4.935 L4.6275,3.8775 C3.1725,5.115 2.25,6.945 2.25,9 C2.25,12.7275 5.2725,15.75 9,15.75 C12.7275,15.75 15.75,12.7275 15.75,9 C15.75,6.945 14.8275,5.115 13.3725,3.8775 Z" id="Shape" fill="#666666" fill-rule="nonzero"></path>
                        </g>
                    </g>
                </g>
            </g>
        </g>
    </g>
</svg>