<?xml version="1.0" encoding="UTF-8"?>
<svg width="22px" height="15px" viewBox="0 0 22 15" version="1.1" xmlns="http://www.w3.org/2000/svg" xmlns:xlink="http://www.w3.org/1999/xlink">
    <!-- Generator: Sketch 45.1 (43504) - http://www.bohemiancoding.com/sketch -->
    <title>ic_people_black_36px</title>
    <desc>Created with Sketch.</desc>
    <defs></defs>
    <g id="Symbols" stroke="none" stroke-width="1" fill="none" fill-rule="evenodd">
        <g id="Header---Tasks" transform="translate(-221.000000, -27.000000)">
            <g id="Group-19" transform="translate(0.000000, -1.000000)">
                <g id="Header" transform="translate(70.000000, 0.000000)">
                    <g id="Group-8">
                        <g id="ic_people_black_36px" transform="translate(150.000000, 24.000000)">
                            <polygon id="Shape" points="0 0 24 0 24 23.3142857 0 23.3142857"></polygon>
                            <path d="M16,10.6857143 C17.66,10.6857143 18.99,9.384 18.99,7.77142857 C18.99,6.15885714 17.66,4.85714286 16,4.85714286 C14.34,4.85714286 13,6.15885714 13,7.77142857 C13,9.384 14.34,10.6857143 16,10.6857143 Z M8,10.6857143 C9.66,10.6857143 10.99,9.384 10.99,7.77142857 C10.99,6.15885714 9.66,4.85714286 8,4.85714286 C6.34,4.85714286 5,6.15885714 5,7.77142857 C5,9.384 6.34,10.6857143 8,10.6857143 Z M8,12.6285714 C5.67,12.6285714 1,13.7651429 1,16.0285714 L1,18.4571429 L15,18.4571429 L15,16.0285714 C15,13.7651429 10.33,12.6285714 8,12.6285714 Z M16,12.6285714 C15.71,12.6285714 15.38,12.648 15.03,12.6771429 C16.19,13.4931429 17,14.5908571 17,16.0285714 L17,18.4571429 L23,18.4571429 L23,16.0285714 C23,13.7651429 18.33,12.6285714 16,12.6285714 Z" id="Shape" fill="#FFFFFF" fill-rule="nonzero"></path>
                        </g>
                    </g>
                </g>
            </g>
        </g>
    </g>
</svg>