<?xml version="1.0" encoding="UTF-8"?>
<svg width="8px" height="12px" viewBox="0 0 8 12" version="1.1" xmlns="http://www.w3.org/2000/svg" xmlns:xlink="http://www.w3.org/1999/xlink">
    <!-- Generator: Sketch 44.1 (41455) - http://www.bohemiancoding.com/sketch -->
    <title>ic_autorenew_black_36px</title>
    <desc>Created with Sketch.</desc>
    <defs></defs>
    <g id="Patient-Profile" stroke="none" stroke-width="1" fill="none" fill-rule="evenodd">
        <g id="Commons_PatientProfile_V1-loading-error" transform="translate(-290.000000, -643.000000)">
            <g id="Group-6" transform="translate(0.000000, 70.000000)">
                <g id="Group-3">
                    <g id="Group-16" transform="translate(137.000000, 573.000000)">
                        <g id="ic_autorenew_black_36px" transform="translate(151.000000, 0.000000)">
                            <path d="M6,3 L6,4.5 L8,2.5 L6,0.5 L6,2 C3.79,2 2,3.79 2,6 C2,6.785 2.23,7.515 2.62,8.13 L3.35,7.4 C3.125,6.985 3,6.505 3,6 C3,4.345 4.345,3 6,3 Z M9.38,3.87 L8.65,4.6 C8.87,5.02 9,5.495 9,6 C9,7.655 7.655,9 6,9 L6,7.5 L4,9.5 L6,11.5 L6,10 C8.21,10 10,8.21 10,6 C10,5.215 9.77,4.485 9.38,3.87 L9.38,3.87 Z" id="Shape" fill="#CCCCCC" fill-rule="nonzero"></path>
                            <polygon id="Shape" points="0 0 12 0 12 12 0 12"></polygon>
                        </g>
                    </g>
                </g>
            </g>
        </g>
    </g>
</svg>