<?xml version="1.0" encoding="UTF-8"?>
<svg width="18px" height="18px" viewBox="0 0 18 18" version="1.1" xmlns="http://www.w3.org/2000/svg" xmlns:xlink="http://www.w3.org/1999/xlink">
    <!-- Generator: Sketch 45.1 (43504) - http://www.bohemiancoding.com/sketch -->
    <title>ic_search_white_24px (1)</title>
    <desc>Created with Sketch.</desc>
    <defs></defs>
    <g id="Symbols" stroke="none" stroke-width="1" fill="none" fill-rule="evenodd">
        <g id="Header---Tasks" transform="translate(-96.000000, -25.000000)">
            <g id="Group-19" transform="translate(0.000000, -1.000000)">
                <g id="Header" transform="translate(70.000000, 0.000000)">
                    <g id="Group-8">
                        <g id="ic_search_white_24px-(1)" transform="translate(23.000000, 24.000000)">
                            <path d="M15.5,13.6 L14.71,13.6 L14.43,13.3377143 C15.41,12.2302857 16,10.7925714 16,9.22857143 C16,5.74114286 13.09,2.91428571 9.5,2.91428571 C5.91,2.91428571 3,5.74114286 3,9.22857143 C3,12.716 5.91,15.5428571 9.5,15.5428571 C11.11,15.5428571 12.59,14.9697143 13.73,14.0177143 L14,14.2897143 L14,15.0571429 L19,19.9045714 L20.49,18.4571429 L15.5,13.6 Z M9.5,13.6 C7.01,13.6 5,11.6474286 5,9.22857143 C5,6.80971429 7.01,4.85714286 9.5,4.85714286 C11.99,4.85714286 14,6.80971429 14,9.22857143 C14,11.6474286 11.99,13.6 9.5,13.6 Z" id="Shape" fill="#FFFFFF" fill-rule="nonzero"></path>
                            <polygon id="Shape" points="0 0 24 0 24 23.3142857 0 23.3142857"></polygon>
                        </g>
                    </g>
                </g>
            </g>
        </g>
    </g>
</svg>