<?xml version="1.0" encoding="UTF-8"?>
<svg width="10px" height="10px" viewBox="0 0 10 10" version="1.1" xmlns="http://www.w3.org/2000/svg" xmlns:xlink="http://www.w3.org/1999/xlink">
    <!-- Generator: Sketch 44.1 (41455) - http://www.bohemiancoding.com/sketch -->
    <title>Slack_Mark_Monochrome_Black</title>
    <desc>Created with Sketch.</desc>
    <defs></defs>
    <g id="Patient-Profile" stroke="none" stroke-width="1" fill="none" fill-rule="evenodd">
        <g id="Commons_PatientProfile_V1-expandedteam-useroptions" transform="translate(-1079.000000, -386.000000)">
            <g id="Group-4" transform="translate(1035.000000, 70.000000)">
                <g id="Group-22">
                    <g id="Group-17" transform="translate(0.000000, 239.000000)">
                        <g id="Group-17-Copy-3">
                            <g id="Group-19">
                                <g id="Group-18">
                                    <g id="Group-6" transform="translate(0.000000, 55.000000)">
                                        <g id="Group-39" transform="translate(43.000000, 20.000000)">
                                            <g id="Slack_Mark_Monochrome_Black" transform="translate(0.000000, 1.000000)">
                                                <rect id="Rectangle-2" x="0" y="0" width="12" height="12"></rect>
                                                <g id="Group" transform="translate(1.000000, 1.000000)" fill-rule="nonzero" fill="#666666">
                                                    <rect id="Rectangle-path" transform="translate(5.023670, 4.983784) rotate(-18.518296) translate(-5.023670, -4.983784) " x="4.32527356" y="4.30919681" width="1.39679257" height="1.34917464"></rect>
                                                    <path d="M9.57142857,3.61111111 C8.54761905,0.198412698 7.07142857,-0.595238095 3.65873016,0.428571429 C0.246031746,1.45238095 -0.547619048,2.92857143 0.476190476,6.34126984 C1.5,9.75396825 2.97619048,10.547619 6.38888889,9.52380952 C9.8015873,8.5 10.5952381,7.02380952 9.57142857,3.61111111 Z M7.84920635,5.82539683 L7.20634921,6.03968254 L7.42857143,6.70634921 C7.51587302,6.97619048 7.37301587,7.26984127 7.1031746,7.35714286 C7.04761905,7.37301587 6.98412698,7.38888889 6.92857143,7.38095238 C6.72222222,7.37301587 6.52380952,7.23809524 6.45238095,7.03174603 L6.23015873,6.36507937 L4.9047619,6.80952381 L5.12698413,7.47619048 C5.21428571,7.74603175 5.07142857,8.03968254 4.8015873,8.12698413 C4.74603175,8.14285714 4.68253968,8.15873016 4.62698413,8.15079365 C4.42063492,8.14285714 4.22222222,8.00793651 4.15079365,7.8015873 L3.92857143,7.13492063 L3.28571429,7.34920635 C3.23015873,7.36507937 3.16666667,7.38095238 3.11111111,7.37301587 C2.9047619,7.36507937 2.70634921,7.23015873 2.63492063,7.02380952 C2.54761905,6.75396825 2.69047619,6.46031746 2.96031746,6.37301587 L3.6031746,6.15873016 L3.17460317,4.88095238 L2.53174603,5.0952381 C2.47619048,5.11111111 2.41269841,5.12698413 2.35714286,5.11904762 C2.15079365,5.11111111 1.95238095,4.97619048 1.88095238,4.76984127 C1.79365079,4.5 1.93650794,4.20634921 2.20634921,4.11904762 L2.84920635,3.9047619 L2.62698413,3.23809524 C2.53968254,2.96825397 2.68253968,2.67460317 2.95238095,2.58730159 C3.22222222,2.5 3.51587302,2.64285714 3.6031746,2.91269841 L3.82539683,3.57936508 L5.15079365,3.13492063 L4.92857143,2.46825397 C4.84126984,2.1984127 4.98412698,1.9047619 5.25396825,1.81746032 C5.52380952,1.73015873 5.81746032,1.87301587 5.9047619,2.14285714 L6.12698413,2.80952381 L6.76984127,2.5952381 C7.03968254,2.50793651 7.33333333,2.65079365 7.42063492,2.92063492 C7.50793651,3.19047619 7.36507937,3.48412698 7.0952381,3.57142857 L6.45238095,3.78571429 L6.88095238,5.06349206 L7.52380952,4.84920635 C7.79365079,4.76190476 8.08730159,4.9047619 8.17460317,5.17460317 C8.26190476,5.44444444 8.11904762,5.73809524 7.84920635,5.82539683 Z" id="Shape"></path>
                                                </g>
                                            </g>
                                        </g>
                                    </g>
                                </g>
                            </g>
                        </g>
                    </g>
                </g>
            </g>
        </g>
    </g>
</svg>