<?xml version="1.0" encoding="UTF-8"?>
<svg width="10px" height="10px" viewBox="0 0 10 10" version="1.1" xmlns="http://www.w3.org/2000/svg" xmlns:xlink="http://www.w3.org/1999/xlink">
    <!-- Generator: Sketch 44.1 (41455) - http://www.bohemiancoding.com/sketch -->
    <title>ic_textsms_black_36px</title>
    <desc>Created with Sketch.</desc>
    <defs></defs>
    <g id="Patient-Profile" stroke="none" stroke-width="1" fill="none" fill-rule="evenodd">
        <g id="Commons_PatientProfile_V1-expandedteam-useroptions" transform="translate(-1079.000000, -454.000000)">
            <g id="Group-4" transform="translate(1035.000000, 70.000000)">
                <g id="Group-22">
                    <g id="Group-17" transform="translate(0.000000, 239.000000)">
                        <g id="Group-17-Copy-3">
                            <g id="Group-19">
                                <g id="Group-18">
                                    <g id="Group-6" transform="translate(0.000000, 55.000000)">
                                        <g id="Group-39" transform="translate(43.000000, 20.000000)">
                                            <g id="ic_textsms_black_36px" transform="translate(0.000000, 69.000000)">
                                                <path d="M10,1 L2,1 C1.45,1 1.005,1.45 1.005,2 L1,11 L3,9 L10,9 C10.55,9 11,8.55 11,8 L11,2 C11,1.45 10.55,1 10,1 Z M4.5,5.5 L3.5,5.5 L3.5,4.5 L4.5,4.5 L4.5,5.5 Z M6.5,5.5 L5.5,5.5 L5.5,4.5 L6.5,4.5 L6.5,5.5 Z M8.5,5.5 L7.5,5.5 L7.5,4.5 L8.5,4.5 L8.5,5.5 Z" id="Shape" fill="#666666" fill-rule="nonzero"></path>
                                                <polygon id="Shape" points="0 0 12 0 12 12 0 12"></polygon>
                                            </g>
                                        </g>
                                    </g>
                                </g>
                            </g>
                        </g>
                    </g>
                </g>
            </g>
        </g>
    </g>
</svg>