<?xml version="1.0" encoding="UTF-8"?>
<svg width="16px" height="19px" viewBox="0 0 16 19" version="1.1" xmlns="http://www.w3.org/2000/svg" xmlns:xlink="http://www.w3.org/1999/xlink">
    <!-- Generator: Sketch 45.1 (43504) - http://www.bohemiancoding.com/sketch -->
    <title>ic_notifications_black_36px</title>
    <desc>Created with Sketch.</desc>
    <defs></defs>
    <g id="Symbols" stroke="none" stroke-width="1" fill="none" fill-rule="evenodd">
        <g id="Header---Tasks" transform="translate(-357.000000, -25.000000)">
            <g id="Group-19" transform="translate(0.000000, -1.000000)">
                <g id="Header" transform="translate(70.000000, 0.000000)">
                    <g id="Group-8">
                        <g id="Group-20" transform="translate(283.000000, 24.000000)">
                            <g id="ic_notifications_black_36px">
                                <polygon id="Shape" points="0 0 24 0 24 23.3142857 0 23.3142857"></polygon>
                                <path d="M12,20.4 C13.1,20.4 14,19.592967 14,18.6065934 L10,18.6065934 C10,19.592967 10.89,20.4 12,20.4 Z M18,15.0197802 L18,10.5362637 C18,7.78338462 16.36,5.47885714 13.5,4.8690989 L13.5,4.25934066 C13.5,3.51507692 12.83,2.91428571 12,2.91428571 C11.17,2.91428571 10.5,3.51507692 10.5,4.25934066 L10.5,4.8690989 C7.63,5.47885714 6,7.77441758 6,10.5362637 L6,15.0197802 L4,16.8131868 L4,17.7098901 L20,17.7098901 L20,16.8131868 L18,15.0197802 Z" id="Shape" fill="#FFFFFF" fill-rule="nonzero"></path>
                            </g>
                        </g>
                    </g>
                </g>
            </g>
        </g>
    </g>
</svg>