<?xml version="1.0" encoding="UTF-8"?>
<svg width="20px" height="20px" viewBox="0 0 20 20" version="1.1" xmlns="http://www.w3.org/2000/svg" xmlns:xlink="http://www.w3.org/1999/xlink">
    <!-- Generator: Sketch 45.1 (43504) - http://www.bohemiancoding.com/sketch -->
    <title>ic_teamchat_white_36px</title>
    <desc>Created with Sketch.</desc>
    <defs></defs>
    <g id="Symbols" stroke="none" stroke-width="1" fill="none" fill-rule="evenodd">
        <g id="iPad_Sidebar_collapsed" transform="translate(-30.000000, -593.000000)">
            <g id="Group-3">
                <g id="Group-31-Copy-3" transform="translate(0.000000, 563.000000)">
                    <g id="ic_teamchat_white_36px" transform="translate(28.000000, 28.000000)">
                        <path d="M20,2 C21.1,2 22,2.9 22,4 L22,16 C22,17.1 21.1,18 20,18 L6,18 L2,22 L2.01,4 C2.01,2.9 2.9,2 4,2 L20,2 Z M14.1818182,9.21428571 C15.0872727,9.21428571 15.8127273,8.49642857 15.8127273,7.60714286 C15.8127273,6.71785714 15.0872727,6 14.1818182,6 C13.2763636,6 12.5454545,6.71785714 12.5454545,7.60714286 C12.5454545,8.49642857 13.2763636,9.21428571 14.1818182,9.21428571 Z M9.81818182,9.21428571 C10.7236364,9.21428571 11.4490909,8.49642857 11.4490909,7.60714286 C11.4490909,6.71785714 10.7236364,6 9.81818182,6 C8.91272727,6 8.18181818,6.71785714 8.18181818,7.60714286 C8.18181818,8.49642857 8.91272727,9.21428571 9.81818182,9.21428571 Z M9.81818182,10.2857143 C8.54727273,10.2857143 6,10.9125 6,12.1607143 L6,13.5 L13.6363636,13.5 L13.6363636,12.1607143 C13.6363636,10.9125 11.0890909,10.2857143 9.81818182,10.2857143 Z M14.1818182,10.2857143 C14.0236364,10.2857143 13.8436364,10.2964286 13.6527273,10.3125 C14.2854545,10.7625 14.7272727,11.3678571 14.7272727,12.1607143 L14.7272727,13.5 L18,13.5 L18,12.1607143 C18,10.9125 15.4527273,10.2857143 14.1818182,10.2857143 Z" id="Combined-Shape" fill="#FFFFFF" fill-rule="nonzero"></path>
                        <polygon id="Shape" points="0 0 24 0 24 24 0 24"></polygon>
                    </g>
                </g>
            </g>
        </g>
    </g>
</svg>