<?xml version="1.0" encoding="UTF-8"?>
<svg width="12px" height="14px" viewBox="0 0 12 14" version="1.1" xmlns="http://www.w3.org/2000/svg" xmlns:xlink="http://www.w3.org/1999/xlink">
    <!-- Generator: Sketch 45.2 (43514) - http://www.bohemiancoding.com/sketch -->
    <title>ic_delete_black_24px (1)</title>
    <desc>Created with Sketch.</desc>
    <defs></defs>
    <g id="Patient-Profile---Task-Management-" stroke="none" stroke-width="1" fill="none" fill-rule="evenodd">
        <g id="Task-Detail---Menu-for-touch" transform="translate(-235.000000, -151.000000)">
            <g id="Task_Detail_View-Copy" transform="translate(10.000000, 10.000000)">
                <g id="Group-27-Copy-2">
                    <g id="Group-11" transform="translate(202.000000, 39.000000)">
                        <g id="Group-9" transform="translate(20.000000, 20.000000)">
                            <g id="Group-8" transform="translate(0.000000, 80.000000)">
                                <g id="ic_delete_black_24px-(1)">
                                    <path d="M4.5,14.25 C4.5,15.075 5.175,15.75 6,15.75 L12,15.75 C12.825,15.75 13.5,15.075 13.5,14.25 L13.5,5.25 L4.5,5.25 L4.5,14.25 Z M14.25,3 L11.625,3 L10.875,2.25 L7.125,2.25 L6.375,3 L3.75,3 L3.75,4.5 L14.25,4.5 L14.25,3 Z" id="Shape" fill="#666666" fill-rule="nonzero"></path>
                                    <polygon id="Shape" points="0 0 18 0 18 18 0 18"></polygon>
                                </g>
                            </g>
                        </g>
                    </g>
                </g>
            </g>
        </g>
    </g>
</svg>