<?xml version="1.0" encoding="UTF-8"?>
<svg width="15px" height="12px" viewBox="0 0 15 12" version="1.1" xmlns="http://www.w3.org/2000/svg" xmlns:xlink="http://www.w3.org/1999/xlink">
    <!-- Generator: Sketch 45.2 (43514) - http://www.bohemiancoding.com/sketch -->
    <title>ic_label_outline_black_24px (1)</title>
    <desc>Created with Sketch.</desc>
    <defs></defs>
    <g id="Symbols" stroke="none" stroke-width="1" fill="none" fill-rule="evenodd">
        <g id="Task_Detail_View-Copy" transform="translate(-227.000000, -364.000000)">
            <g id="Group-27-Copy-2">
                <g id="Group-12" transform="translate(20.000000, 360.000000)">
                    <g id="Group-9" transform="translate(205.000000, 0.000000)">
                        <g id="ic_label_outline_black_24px-(1)" transform="translate(0.000000, 1.000000)">
                            <polygon id="Shape" points="0 0 18 0 18 18 0 18"></polygon>
                            <path d="M13.2225,4.38 C12.9525,3.9975 12.5025,3.75 12,3.75 L3.75,3.7575 C2.925,3.7575 2.25,4.425 2.25,5.25 L2.25,12.75 C2.25,13.575 2.925,14.2425 3.75,14.2425 L12,14.25 C12.5025,14.25 12.9525,14.0025 13.2225,13.62 L16.5,9 L13.2225,4.38 Z M12,12.75 L3.75,12.75 L3.75,5.25 L12,5.25 L14.6625,9 L12,12.75 Z" id="Shape" fill="#666666" fill-rule="nonzero"></path>
                        </g>
                    </g>
                </g>
            </g>
        </g>
    </g>
</svg>